<svg id="Icons" height="512" viewBox="0 0 74 74" width="512" xmlns="http://www.w3.org/2000/svg"><path d="m71 51.44a1 1 0 0 1 -1-1v-2.91a1 1 0 0 1 2 0v2.91a1 1 0 0 1 -1 1z"/><path d="m67 72h-60a5.006 5.006 0 0 1 -5-5v-60a5.006 5.006 0 0 1 5-5h60a5.006 5.006 0 0 1 5 5v23.56a1 1 0 1 1 -2 0v-23.56a3 3 0 0 0 -3-3h-60a3 3 0 0 0 -3 3v60a3 3 0 0 0 3 3h60a3 3 0 0 0 3-3v-9.56a1 1 0 0 1 2 0v9.56a5.006 5.006 0 0 1 -5 5z"/><path d="m71 41.53a1 1 0 0 1 -1-1v-2.97a1 1 0 0 1 2 0v2.97a1 1 0 0 1 -1 1z"/><path d="m47.455 61h-20.91a1 1 0 0 1 -1-1v-8.409h-8.42a1 1 0 0 1 -1-1v-12.591h-6.307a1 1 0 0 1 -1-1v-23a1 1 0 0 1 1-1h54.364a1 1 0 0 1 1 1v23a1 1 0 0 1 -1 1h-6.307v12.591a1 1 0 0 1 -1 1h-8.42v8.409a1 1 0 0 1 -1 1zm-19.91-2h18.91v-8.409a1 1 0 0 1 1-1h8.42v-12.591a1 1 0 0 1 1-1h6.307v-21h-52.364v21h6.307a1 1 0 0 1 1 1v12.591h8.42a1 1 0 0 1 1 1z"/><path d="m56 27.417a1 1 0 0 1 -1-1v-5.417a1 1 0 0 1 2 0v5.417a1 1 0 0 1 -1 1z"/><path d="m48.4 27.417a1 1 0 0 1 -1-1v-5.417a1 1 0 0 1 2 0v5.417a1 1 0 0 1 -1 1z"/><path d="m40.8 27.417a1 1 0 0 1 -1-1v-5.417a1 1 0 0 1 2 0v5.417a1 1 0 0 1 -1 1z"/><path d="m33.2 27.417a1 1 0 0 1 -1-1v-5.417a1 1 0 0 1 2 0v5.417a1 1 0 0 1 -1 1z"/><path d="m25.6 27.417a1 1 0 0 1 -1-1v-5.417a1 1 0 0 1 2 0v5.417a1 1 0 0 1 -1 1z"/><path d="m18 27.417a1 1 0 0 1 -1-1v-5.417a1 1 0 0 1 2 0v5.417a1 1 0 0 1 -1 1z"/></svg>